<?xml version="1.0" encoding="UTF-8" standalone="no" ?>
<!DOCTYPE svg PUBLIC "-//W3C//DTD SVG 1.1//EN" "http://www.w3.org/Graphics/SVG/1.1/DTD/svg11.dtd">
<svg xmlns="http://www.w3.org/2000/svg" xmlns:xlink="http://www.w3.org/1999/xlink" version="1.1" width="500" height="100" viewBox="0 0 500 100" xml:space="preserve">
<desc>Created with Fabric.js 4.6.0</desc>
<defs>
</defs>
<g transform="matrix(0.81 0 0 0.81 250.08 419.66)" id="4bFIExxz3r_X4Pn3AZlES"  >
<g style="" vector-effect="non-scaling-stroke"   >
		<g transform="matrix(1.01 0 0 0.03 0 88.33)" id="BhDzdAfBeCe-Wszu_Nm1y"  >
<path style="stroke: rgb(83,220,48); stroke-width: 0; stroke-dasharray: none; stroke-linecap: butt; stroke-dashoffset: 0; stroke-linejoin: miter; stroke-miterlimit: 4; fill: rgb(63,69,83); fill-rule: nonzero; opacity: 1;" vector-effect="non-scaling-stroke"  transform=" translate(0, 0)" d="M -305.55556 -305.55556 L 305.55555000000004 -305.55556 L 305.55555000000004 305.55555000000004 L -305.55556 305.55555000000004 z" stroke-linecap="round" />
</g>
		<g transform="matrix(1 0 0 0.25 0 9.71)" id="8zHr2QEW62rTU34Yy-7ET"  >
<path style="stroke: rgb(184,118,141); stroke-width: 0; stroke-dasharray: none; stroke-linecap: butt; stroke-dashoffset: 0; stroke-linejoin: miter; stroke-miterlimit: 4; fill: rgb(206,206,206); fill-rule: nonzero; opacity: 1;" vector-effect="non-scaling-stroke"  transform=" translate(0, 0)" d="M -274.11765 -274.11765 L 274.11765 -274.11765 L 274.11765 274.11765 L -274.11765 274.11765 z" stroke-linecap="round" />
</g>
		<g transform="matrix(1 0 0 1 -213.98 16.11)" id="-uffBm_0QvRz_HY1f2BOr"  >
<g style="" vector-effect="non-scaling-stroke"   >
		<g transform="matrix(0.45 0 0 1 -0.01 14.15)" id="ZqvxHaDaMEuJ2wUX0Xiwm"  >
<path style="stroke: rgb(137,105,78); stroke-width: 0; stroke-dasharray: none; stroke-linecap: butt; stroke-dashoffset: 0; stroke-linejoin: miter; stroke-miterlimit: 4; fill: rgb(98,105,121); fill-rule: nonzero; opacity: 1;" vector-effect="non-scaling-stroke"  transform=" translate(0, 0)" d="M -48.01136 -48.01136 L 48.01136999999999 -48.01136 L 48.01136999999999 48.01136999999999 L -48.01136 48.01136999999999 z" stroke-linecap="round" />
</g>
		<g transform="matrix(0.45 0 0 0.28 0 -48.75)" id="XwhYHRkvRfpuO8D4pozf2"  >
<path style="stroke: rgb(137,105,78); stroke-width: 0; stroke-dasharray: none; stroke-linecap: butt; stroke-dashoffset: 0; stroke-linejoin: miter; stroke-miterlimit: 4; fill: rgb(70,72,85); fill-rule: nonzero; opacity: 1;" vector-effect="non-scaling-stroke"  transform=" translate(0, 0)" d="M -48.01136 -48.01136 L 48.01136999999999 -48.01136 L 48.01136999999999 48.01136999999999 L -48.01136 48.01136999999999 z" stroke-linecap="round" />
</g>
</g>
</g>
		<g transform="matrix(1 0 0 1 -143 15.57)" id="Ysq9WFyZwih55unXdSOlu"  >
<g style="" vector-effect="non-scaling-stroke"   >
		<g transform="matrix(0.45 0 0 1 -0.01 14.15)" id="rHtAJJmcp1Se8R26rnbG2"  >
<path style="stroke: rgb(137,105,78); stroke-width: 0; stroke-dasharray: none; stroke-linecap: butt; stroke-dashoffset: 0; stroke-linejoin: miter; stroke-miterlimit: 4; fill: rgb(98,105,121); fill-rule: nonzero; opacity: 1;" vector-effect="non-scaling-stroke"  transform=" translate(0, 0)" d="M -48.01136 -48.01136 L 48.01136999999999 -48.01136 L 48.01136999999999 48.01136999999999 L -48.01136 48.01136999999999 z" stroke-linecap="round" />
</g>
		<g transform="matrix(0.45 0 0 0.28 0 -48.75)" id="h5ueYtu1muAqEfowZm5KB"  >
<path style="stroke: rgb(137,105,78); stroke-width: 0; stroke-dasharray: none; stroke-linecap: butt; stroke-dashoffset: 0; stroke-linejoin: miter; stroke-miterlimit: 4; fill: rgb(70,72,85); fill-rule: nonzero; opacity: 1;" vector-effect="non-scaling-stroke"  transform=" translate(0, 0)" d="M -48.01136 -48.01136 L 48.01136999999999 -48.01136 L 48.01136999999999 48.01136999999999 L -48.01136 48.01136999999999 z" stroke-linecap="round" />
</g>
</g>
</g>
		<g transform="matrix(1 0 0 1 -69.06 16.11)" id="UpmcLa10tGp-rf3_3Fib8"  >
<g style="" vector-effect="non-scaling-stroke"   >
		<g transform="matrix(0.45 0 0 1 -0.01 14.15)" id="71hpRy3aVxLqet4udz173"  >
<path style="stroke: rgb(137,105,78); stroke-width: 0; stroke-dasharray: none; stroke-linecap: butt; stroke-dashoffset: 0; stroke-linejoin: miter; stroke-miterlimit: 4; fill: rgb(98,105,121); fill-rule: nonzero; opacity: 1;" vector-effect="non-scaling-stroke"  transform=" translate(0, 0)" d="M -48.01136 -48.01136 L 48.01136999999999 -48.01136 L 48.01136999999999 48.01136999999999 L -48.01136 48.01136999999999 z" stroke-linecap="round" />
</g>
		<g transform="matrix(0.45 0 0 0.28 0 -48.75)" id="OC4RAlOqSJsEk9j0rkiiG"  >
<path style="stroke: rgb(137,105,78); stroke-width: 0; stroke-dasharray: none; stroke-linecap: butt; stroke-dashoffset: 0; stroke-linejoin: miter; stroke-miterlimit: 4; fill: rgb(70,72,85); fill-rule: nonzero; opacity: 1;" vector-effect="non-scaling-stroke"  transform=" translate(0, 0)" d="M -48.01136 -48.01136 L 48.01136999999999 -48.01136 L 48.01136999999999 48.01136999999999 L -48.01136 48.01136999999999 z" stroke-linecap="round" />
</g>
</g>
</g>
		<g transform="matrix(1 0 0 1 0 16.11)" id="rAPDt84hrJ0kLenIprgFf"  >
<g style="" vector-effect="non-scaling-stroke"   >
		<g transform="matrix(0.45 0 0 1 -0.01 14.15)" id="Kj610QOlaffw7DpnBJ7xM"  >
<path style="stroke: rgb(137,105,78); stroke-width: 0; stroke-dasharray: none; stroke-linecap: butt; stroke-dashoffset: 0; stroke-linejoin: miter; stroke-miterlimit: 4; fill: rgb(98,105,121); fill-rule: nonzero; opacity: 1;" vector-effect="non-scaling-stroke"  transform=" translate(0, 0)" d="M -48.01136 -48.01136 L 48.01136999999999 -48.01136 L 48.01136999999999 48.01136999999999 L -48.01136 48.01136999999999 z" stroke-linecap="round" />
</g>
		<g transform="matrix(0.45 0 0 0.28 0 -48.75)" id="qj_GUwc_5fDD_GExVN-Xu"  >
<path style="stroke: rgb(137,105,78); stroke-width: 0; stroke-dasharray: none; stroke-linecap: butt; stroke-dashoffset: 0; stroke-linejoin: miter; stroke-miterlimit: 4; fill: rgb(70,72,85); fill-rule: nonzero; opacity: 1;" vector-effect="non-scaling-stroke"  transform=" translate(0, 0)" d="M -48.01136 -48.01136 L 48.01136999999999 -48.01136 L 48.01136999999999 48.01136999999999 L -48.01136 48.01136999999999 z" stroke-linecap="round" />
</g>
</g>
</g>
		<g transform="matrix(1 0 0 1 72.25 16.11)" id="-riE_5jQ1YktI36KxC4Et"  >
<g style="" vector-effect="non-scaling-stroke"   >
		<g transform="matrix(0.45 0 0 1 -0.01 14.15)" id="uZgQJ-bIStJE-NQUowhOC"  >
<path style="stroke: rgb(137,105,78); stroke-width: 0; stroke-dasharray: none; stroke-linecap: butt; stroke-dashoffset: 0; stroke-linejoin: miter; stroke-miterlimit: 4; fill: rgb(98,105,121); fill-rule: nonzero; opacity: 1;" vector-effect="non-scaling-stroke"  transform=" translate(0, 0)" d="M -48.01136 -48.01136 L 48.01136999999999 -48.01136 L 48.01136999999999 48.01136999999999 L -48.01136 48.01136999999999 z" stroke-linecap="round" />
</g>
		<g transform="matrix(0.45 0 0 0.28 0 -48.75)" id="oOKc2q9piswc2jsqQCKQY"  >
<path style="stroke: rgb(137,105,78); stroke-width: 0; stroke-dasharray: none; stroke-linecap: butt; stroke-dashoffset: 0; stroke-linejoin: miter; stroke-miterlimit: 4; fill: rgb(70,72,85); fill-rule: nonzero; opacity: 1;" vector-effect="non-scaling-stroke"  transform=" translate(0, 0)" d="M -48.01136 -48.01136 L 48.01136999999999 -48.01136 L 48.01136999999999 48.01136999999999 L -48.01136 48.01136999999999 z" stroke-linecap="round" />
</g>
</g>
</g>
		<g transform="matrix(1 0 0 1 144.54 16.11)" id="D3RlMeQ7WFt4Qz-RYtgBn"  >
<g style="" vector-effect="non-scaling-stroke"   >
		<g transform="matrix(0.45 0 0 1 -0.01 14.15)" id="WOfzX6j0OfHa-b5BXZlhy"  >
<path style="stroke: rgb(137,105,78); stroke-width: 0; stroke-dasharray: none; stroke-linecap: butt; stroke-dashoffset: 0; stroke-linejoin: miter; stroke-miterlimit: 4; fill: rgb(98,105,121); fill-rule: nonzero; opacity: 1;" vector-effect="non-scaling-stroke"  transform=" translate(0, 0)" d="M -48.01136 -48.01136 L 48.01136999999999 -48.01136 L 48.01136999999999 48.01136999999999 L -48.01136 48.01136999999999 z" stroke-linecap="round" />
</g>
		<g transform="matrix(0.45 0 0 0.28 0 -48.75)" id="kxKTm2KyjM6EwDgVoxN_1"  >
<path style="stroke: rgb(137,105,78); stroke-width: 0; stroke-dasharray: none; stroke-linecap: butt; stroke-dashoffset: 0; stroke-linejoin: miter; stroke-miterlimit: 4; fill: rgb(70,72,85); fill-rule: nonzero; opacity: 1;" vector-effect="non-scaling-stroke"  transform=" translate(0, 0)" d="M -48.01136 -48.01136 L 48.01136999999999 -48.01136 L 48.01136999999999 48.01136999999999 L -48.01136 48.01136999999999 z" stroke-linecap="round" />
</g>
</g>
</g>
		<g transform="matrix(1 0 0 1 216.5 15.57)" id="90F2w4IOyRywQjTvAM0aI"  >
<g style="" vector-effect="non-scaling-stroke"   >
		<g transform="matrix(0.45 0 0 1 -0.01 14.15)" id="gx-SlrsxH6pxo54SxuFgW"  >
<path style="stroke: rgb(137,105,78); stroke-width: 0; stroke-dasharray: none; stroke-linecap: butt; stroke-dashoffset: 0; stroke-linejoin: miter; stroke-miterlimit: 4; fill: rgb(98,105,121); fill-rule: nonzero; opacity: 1;" vector-effect="non-scaling-stroke"  transform=" translate(0, 0)" d="M -48.01136 -48.01136 L 48.01136999999999 -48.01136 L 48.01136999999999 48.01136999999999 L -48.01136 48.01136999999999 z" stroke-linecap="round" />
</g>
		<g transform="matrix(0.45 0 0 0.28 0 -48.75)" id="hWWjCUK6suNnZCJP_OvIw"  >
<path style="stroke: rgb(137,105,78); stroke-width: 0; stroke-dasharray: none; stroke-linecap: butt; stroke-dashoffset: 0; stroke-linejoin: miter; stroke-miterlimit: 4; fill: rgb(70,72,85); fill-rule: nonzero; opacity: 1;" vector-effect="non-scaling-stroke"  transform=" translate(0, 0)" d="M -48.01136 -48.01136 L 48.01136999999999 -48.01136 L 48.01136999999999 48.01136999999999 L -48.01136 48.01136999999999 z" stroke-linecap="round" />
</g>
</g>
</g>
		<g transform="matrix(1.01 0 0 0.07 0 -78.62)" id="Q9MIXhGLg4c5mHwrm2CDa"  >
<path style="stroke: rgb(83,220,48); stroke-width: 0; stroke-dasharray: none; stroke-linecap: butt; stroke-dashoffset: 0; stroke-linejoin: miter; stroke-miterlimit: 4; fill: rgb(63,69,83); fill-rule: nonzero; opacity: 1;" vector-effect="non-scaling-stroke"  transform=" translate(0, 0)" d="M -305.55556 -305.55556 L 305.55555000000004 -305.55556 L 305.55555000000004 305.55555000000004 L -305.55556 305.55555000000004 z" stroke-linecap="round" />
</g>
</g>
</g>
<g transform="matrix(1.16 0 0 1.2 249.73 50.21)" id="_h06guHez4Ev0o7cEmgXn"  >
<g style="" vector-effect="non-scaling-stroke"   >
		<g transform="matrix(2.95 0 0 0.16 0 -30.41)" id="ScUqgYRS46TgFsQ70NorC"  >
<path style="stroke: rgb(16,63,97); stroke-width: 0; stroke-dasharray: none; stroke-linecap: butt; stroke-dashoffset: 0; stroke-linejoin: miter; stroke-miterlimit: 4; fill: rgb(63,69,83); fill-rule: nonzero; opacity: 1;" vector-effect="non-scaling-stroke"  transform=" translate(0, 0)" d="M -72.91666 -72.91666 L 72.91667 -72.91666 L 72.91667 72.91667 L -72.91666 72.91667 z" stroke-linecap="round" />
</g>
		<g transform="matrix(0.42 0 0 0.07 -84.63 20.75)" id="7tgub1qH6Q41zxWp4UJnL"  >
<path style="stroke: rgb(164,134,55); stroke-width: 0; stroke-dasharray: none; stroke-linecap: butt; stroke-dashoffset: 0; stroke-linejoin: miter; stroke-miterlimit: 4; fill: rgb(74,193,189); fill-rule: nonzero; opacity: 1;" vector-effect="non-scaling-stroke"  transform=" translate(0, 0)" d="M -309.55056 -309.55056 L 309.55057 -309.55056 L 309.55057 309.55057 L -309.55056 309.55057 z" stroke-linecap="round" />
</g>
		<g transform="matrix(0.42 0 0 0.03 -84.63 -9.66)" id="DIbmQGpSzYu0buzap-_Yb"  >
<path style="stroke: rgb(164,134,55); stroke-width: 0; stroke-dasharray: none; stroke-linecap: butt; stroke-dashoffset: 0; stroke-linejoin: miter; stroke-miterlimit: 4; fill: rgb(72,164,163); fill-rule: nonzero; opacity: 1;" vector-effect="non-scaling-stroke"  transform=" translate(0, 0)" d="M -309.55056 -309.55056 L 309.55057 -309.55056 L 309.55057 309.55057 L -309.55056 309.55057 z" stroke-linecap="round" />
</g>
		<g transform="matrix(0.27 0 0 0.07 130.55 20.96)" id="-E-JYDlQvQ38bUG2oAGEI"  >
<path style="stroke: rgb(164,134,55); stroke-width: 0; stroke-dasharray: none; stroke-linecap: butt; stroke-dashoffset: 0; stroke-linejoin: miter; stroke-miterlimit: 4; fill: rgb(114,207,204); fill-rule: nonzero; opacity: 1;" vector-effect="non-scaling-stroke"  transform=" translate(0, 0)" d="M -309.55056 -309.55056 L 309.55057 -309.55056 L 309.55057 309.55057 L -309.55056 309.55057 z" stroke-linecap="round" />
</g>
		<g transform="matrix(0.27 0 0 0.03 130.55 -9.45)" id="yIPOnPp9pJyZGpJeHsCwr"  >
<path style="stroke: rgb(164,134,55); stroke-width: 0; stroke-dasharray: none; stroke-linecap: butt; stroke-dashoffset: 0; stroke-linejoin: miter; stroke-miterlimit: 4; fill: rgb(103,175,174); fill-rule: nonzero; opacity: 1;" vector-effect="non-scaling-stroke"  transform=" translate(0, 0)" d="M -309.55056 -309.55056 L 309.55057 -309.55056 L 309.55057 309.55057 L -309.55056 309.55057 z" stroke-linecap="round" />
</g>
</g>
</g>
</svg>